<?xml version="1.0" standalone="no"?>
<!DOCTYPE svg PUBLIC "-//W3C//DTD SVG 20010904//EN"
 "http://www.w3.org/TR/2001/REC-SVG-20010904/DTD/svg10.dtd">
<svg version="1.0" xmlns="http://www.w3.org/2000/svg"
 width="500.000000pt" height="500.000000pt" viewBox="0 0 500.000000 500.000000"
 preserveAspectRatio="xMidYMid meet">

<g transform="translate(0.000000,500.000000) scale(0.100000,-0.100000)"
fill="#000000" stroke="none">
<path d="M2582 2745 c-18 -36 -40 -68 -50 -71 -96 -30 -178 -97 -220 -179 -34
-66 -43 -208 -18 -285 16 -47 15 -52 -3 -88 -10 -20 -22 -47 -26 -60 -7 -23
-7 -23 44 5 l50 28 32 -31 c27 -27 29 -34 20 -53 -13 -24 -9 -26 21 -10 16 8
33 7 75 -6 44 -14 73 -16 146 -10 51 4 110 7 133 8 32 1 40 5 37 18 -3 9 10
26 31 43 l36 27 40 -21 c45 -23 49 -16 20 40 -18 36 -19 43 -6 68 23 45 39
142 32 199 -18 151 -106 260 -245 303 -51 16 -56 21 -85 79 l-32 61 -32 -65z
m186 -164 c70 -36 115 -101 132 -193 10 -52 4 -148 -10 -148 -5 0 -144 287
-167 348 -7 16 1 15 45 -7z m-287 -53 c-16 -35 -51 -110 -79 -168 l-50 -105
-1 75 c-1 78 17 134 59 187 21 28 79 73 92 73 4 0 -6 -28 -21 -62z m218 -170
c43 -90 87 -182 99 -206 19 -40 19 -43 2 -52 -15 -8 -27 12 -100 170 -46 99
-84 180 -85 180 -1 0 -37 -76 -80 -170 -43 -93 -81 -170 -84 -170 -34 1 -27
25 64 213 53 108 98 197 101 197 3 0 40 -73 83 -162z m-42 -309 c-13 -3 -41
-3 -63 0 l-39 7 30 16 c27 14 32 14 63 0 33 -16 33 -17 9 -23z"/>
<path d="M388 2418 c-3 -232 -6 -268 -22 -301 -24 -49 -61 -67 -133 -67 -70 0
-116 24 -140 75 -15 31 -21 35 -54 35 -37 0 -37 -1 -29 -29 17 -62 61 -110
122 -135 43 -18 153 -21 195 -5 38 14 80 56 106 104 21 38 22 56 25 313 l4
272 -35 0 -35 0 -4 -262z"/>
<path d="M580 2330 l0 -350 255 0 255 0 0 35 0 35 -215 0 -215 0 0 125 0 125
196 0 195 0 -3 33 -3 32 -193 0 -192 0 0 123 0 122 215 0 215 0 0 35 0 35
-255 0 -254 0 -1 -350z"/>
<path d="M1180 2330 l0 -350 230 0 230 0 0 35 0 35 -195 0 -195 0 0 315 0 315
-35 0 -35 0 0 -350z"/>
<path d="M1700 2330 l0 -350 35 0 35 0 0 124 0 123 159 5 c145 4 164 7 208 29
28 15 60 42 78 68 27 38 30 50 30 119 0 93 -22 143 -81 184 -53 38 -119 48
-305 48 l-159 0 0 -350z m406 258 c49 -27 68 -64 69 -135 0 -47 -5 -68 -21
-90 -37 -50 -66 -58 -231 -61 l-153 -3 0 156 0 157 153 -4 c119 -2 159 -7 183
-20z"/>
<path d="M3251 2664 c-198 -71 -284 -299 -190 -499 26 -55 96 -125 157 -156
41 -21 61 -24 157 -24 100 0 114 2 160 27 28 15 69 46 91 70 39 40 86 118 82
135 0 5 1 15 5 23 22 60 11 183 -24 254 -29 57 -95 123 -154 154 -42 21 -66
26 -145 29 -69 2 -107 -1 -139 -13z m236 -70 c60 -22 126 -89 146 -149 20 -56
21 -174 4 -222 -24 -64 -73 -119 -130 -147 -45 -22 -68 -27 -132 -27 -126 0
-210 52 -258 160 -25 57 -27 179 -3 235 60 144 215 206 373 150z"/>
<path d="M3750 2645 l0 -35 120 0 120 0 0 -315 0 -315 35 0 35 0 0 315 0 315
125 0 125 0 0 35 0 35 -280 0 -280 0 0 -35z"/>
<path d="M4370 2330 l0 -350 35 0 34 0 3 158 3 157 205 0 205 0 3 -157 3 -158
34 0 35 0 0 350 0 350 -35 0 -35 0 0 -155 0 -155 -210 0 -210 0 0 155 0 155
-35 0 -35 0 0 -350z"/>
</g>
</svg>
